<svg id="Ebene_1" data-name="Ebene 1" xmlns="http://www.w3.org/2000/svg" viewBox="0 0 50 50"><defs><style>.cls-1{fill:#fff;}</style></defs><path class="cls-1" d="M14.82,8.46a.82.82,0,0,0-.81.81v1H9.27A2.67,2.67,0,0,0,6.61,13V38.88a2.67,2.67,0,0,0,2.66,2.66H40.73a2.67,2.67,0,0,0,2.66-2.66V13a2.67,2.67,0,0,0-2.66-2.66H36v-1a.81.81,0,1,0-1.62,0v1H15.63v-1A.81.81,0,0,0,14.82,8.46Zm27,30.42a1,1,0,0,1-1,1H9.27a1,1,0,0,1-1-1V19.34H41.77Zm-7.4-26.95v2.89a.81.81,0,1,0,1.62,0V11.93h4.74a1,1,0,0,1,1,1v4.74H8.23V13a1,1,0,0,1,1-1H14v2.89a.81.81,0,0,0,1.62,0V11.93Z"/><path class="cls-1" d="M20.37,23.26H18.52a.82.82,0,0,0,0,1.63h1.85a.82.82,0,1,0,0-1.63Z"/><path class="cls-1" d="M25.93,23.26H24.07a.82.82,0,0,0,0,1.63h1.86a.82.82,0,0,0,0-1.63Z"/><path class="cls-1" d="M31.48,23.26H29.63a.82.82,0,1,0,0,1.63h1.85a.82.82,0,0,0,0-1.63Z"/><path class="cls-1" d="M37,23.26H35.18a.82.82,0,0,0,0,1.63H37a.82.82,0,0,0,0-1.63Z"/><path class="cls-1" d="M14.82,27H13a.82.82,0,0,0,0,1.63h1.85a.82.82,0,0,0,0-1.63Z"/><path class="cls-1" d="M20.37,27H18.52a.82.82,0,0,0,0,1.63h1.85a.82.82,0,1,0,0-1.63Z"/><path class="cls-1" d="M25.93,27H24.07a.82.82,0,0,0,0,1.63h1.86a.82.82,0,0,0,0-1.63Z"/><path class="cls-1" d="M31.48,27H29.63a.82.82,0,1,0,0,1.63h1.85a.82.82,0,0,0,0-1.63Z"/><path class="cls-1" d="M37,27H35.18a.82.82,0,0,0,0,1.63H37A.82.82,0,0,0,37,27Z"/><path class="cls-1" d="M14.82,30.66H13a.82.82,0,0,0,0,1.63h1.85a.82.82,0,0,0,0-1.63Z"/><path class="cls-1" d="M20.37,30.66H18.52a.82.82,0,0,0,0,1.63h1.85a.82.82,0,1,0,0-1.63Z"/><path class="cls-1" d="M25.93,30.66H24.07a.82.82,0,0,0,0,1.63h1.86a.82.82,0,0,0,0-1.63Z"/><path class="cls-1" d="M31.48,30.66H29.63a.82.82,0,1,0,0,1.63h1.85a.82.82,0,0,0,0-1.63Z"/><path class="cls-1" d="M37,30.66H35.18a.82.82,0,0,0,0,1.63H37a.82.82,0,0,0,0-1.63Z"/><path class="cls-1" d="M14.82,34.37H13A.81.81,0,1,0,13,36h1.85a.81.81,0,0,0,0-1.62Z"/><path class="cls-1" d="M20.37,34.37H18.52a.81.81,0,0,0,0,1.62h1.85a.81.81,0,1,0,0-1.62Z"/><path class="cls-1" d="M25.93,34.37H24.07a.81.81,0,0,0,0,1.62h1.86a.81.81,0,1,0,0-1.62Z"/><path class="cls-1" d="M31.48,34.37H29.63a.81.81,0,1,0,0,1.62h1.85a.81.81,0,0,0,0-1.62Z"/><path class="cls-1" d="M37,34.37H35.18a.81.81,0,0,0,0,1.62H37a.81.81,0,0,0,0-1.62Z"/></svg>