<svg width="26" height="26" viewBox="0 0 26 26" fill="none" xmlns="http://www.w3.org/2000/svg">
<g clip-path="url(#clip0)">
<path d="M19.5 3.05744e-05C19.6664 3.05599e-05 19.8328 0.0637303 19.9602 0.189831C20.2137 0.443331 20.2137 0.855433 19.9602 1.10893L8.72041 12.3487L19.9602 23.5885C20.2137 23.842 20.2137 24.2541 19.9602 24.5076C19.7067 24.7611 19.2946 24.7611 19.0411 24.5076L7.34111 12.8076C7.08761 12.5541 7.08761 12.142 7.34111 11.8885L19.0411 0.188532C19.1685 0.0611325 19.3349 -0.00126832 19.5013 -0.00126833L19.5 3.05744e-05Z" fill="black"/>
</g>
<defs>
<clipPath id="clip0">
<rect x="26" y="26" width="26" height="26" transform="rotate(180 26 26)" fill="white"/>
</clipPath>
</defs>
</svg>
