<svg id="Ebene_1" data-name="Ebene 1" xmlns="http://www.w3.org/2000/svg" viewBox="0 0 50 50"><path d="M42.49,36.28a2.16,2.16,0,0,0,2.15-2.16,4.81,4.81,0,0,0-1-2.66,5.73,5.73,0,0,0-2.28-1.77,10.43,10.43,0,0,0-4.22-.77l-.79,0a.64.64,0,0,0-.6.67.58.58,0,0,0,.21.44.63.63,0,0,0,.46.17c.23,0,.47,0,.72,0,6,0,6.2,3.76,6.21,3.92a.89.89,0,0,1-.89.89H37.92a.63.63,0,0,0-.63.63.64.64,0,0,0,.6.64h4.6Z"/><path d="M37.16,18.28a4.44,4.44,0,1,0,4.44,4.44A4.44,4.44,0,0,0,37.16,18.28Zm0,7.6a3.17,3.17,0,1,1,3.17-3.16A3.17,3.17,0,0,1,37.16,25.88Z"/><path d="M15.86,30.68a6,6,0,0,0-1.38,3.44,2.16,2.16,0,0,0,2.16,2.16H33.36a2.16,2.16,0,0,0,2.16-2.16,6,6,0,0,0-1.38-3.44A7.92,7.92,0,0,0,31,28.4a15.88,15.88,0,0,0-6-1,15.84,15.84,0,0,0-6,1A7.92,7.92,0,0,0,15.86,30.68Zm9.14-2c3.79,0,6.59.94,8.09,2.73a4.75,4.75,0,0,1,1.16,2.71.89.89,0,0,1-.89.89H16.64a.89.89,0,0,1-.89-.88h0a4.75,4.75,0,0,1,1.16-2.71C18.41,29.62,21.21,28.68,25,28.68Z"/><path d="M25,13.72a6,6,0,1,0,6,6A6,6,0,0,0,25,13.72Zm0,10.64a4.69,4.69,0,1,1,4.69-4.68A4.69,4.69,0,0,1,25,24.36Z"/><path d="M13.63,29c-.26,0-.53,0-.79,0a10.43,10.43,0,0,0-4.22.77,5.73,5.73,0,0,0-2.28,1.77,4.83,4.83,0,0,0-1,2.66,2.16,2.16,0,0,0,2.15,2.16h4.6a.64.64,0,0,0,0-1.27H7.52a.89.89,0,0,1-.89-.88c0-.16.17-3.93,6.21-3.93l.72,0a.6.6,0,0,0,.46-.17.56.56,0,0,0,.21-.43A.63.63,0,0,0,13.63,29Z"/><path d="M12.84,18.28a4.44,4.44,0,1,0,4.43,4.44A4.44,4.44,0,0,0,12.84,18.28Zm0,7.6A3.17,3.17,0,1,1,16,22.72,3.17,3.17,0,0,1,12.84,25.88Z"/></svg>