<svg id="Ebene_1" data-name="Ebene 1" xmlns="http://www.w3.org/2000/svg" viewBox="0 0 50 50"><path d="M45.26,8.31H22.4a2.14,2.14,0,0,0-2.14,2.14v2.26h0a.71.71,0,0,0,1.42,0h0V10.45a.72.72,0,0,1,.72-.71H45.26a.71.71,0,0,1,.72.71V24.74a.72.72,0,0,1-.72.72H22.4a.72.72,0,0,1-.72-.72V22.55h0a.71.71,0,1,0-1.42,0h0v2.19a2.15,2.15,0,0,0,2.14,2.15H45.26a2.15,2.15,0,0,0,2.15-2.15V10.45A2.14,2.14,0,0,0,45.26,8.31Z"/><path d="M11.87,14.81a4.2,4.2,0,1,1,4.2-4.2A4.21,4.21,0,0,1,11.87,14.81Zm0-7a2.79,2.79,0,1,0,2.79,2.79A2.79,2.79,0,0,0,11.87,7.82Z"/><path d="M26.16,15.08h-22a1.6,1.6,0,0,0-1.59,1.6V25a1.6,1.6,0,0,0,1.59,1.6H5.83V42a1.59,1.59,0,0,0,1.59,1.59h2A1.59,1.59,0,0,0,11,42V31.26a.22.22,0,0,1,.2-.15h1.32a.2.2,0,0,1,.2.2s0,0,0,0V42a1.59,1.59,0,0,0,1.59,1.59h2A1.59,1.59,0,0,0,17.88,42V20.46h0a.19.19,0,0,1,.2-.19h8.08a1.6,1.6,0,0,0,1.59-1.59v-2A1.6,1.6,0,0,0,26.16,15.08Zm-15,14.63Zm15.15-11a.18.18,0,0,1-.18.18H18.05a1.53,1.53,0,0,0-.3,0h0a1.52,1.52,0,0,0-.28.09h0a1.3,1.3,0,0,0-.26.14h0a2.11,2.11,0,0,0-.23.19h0a1.37,1.37,0,0,0-.19.23h0a1.35,1.35,0,0,0-.15.26h0a1.4,1.4,0,0,0-.09.29h0a1.45,1.45,0,0,0,0,.3h0V42a.2.2,0,0,1-.19.19h-2a.2.2,0,0,1-.19-.19V31.25a2.54,2.54,0,0,0,0-.29v0a1.52,1.52,0,0,0-.09-.28h0a2.07,2.07,0,0,0-.15-.25h0a1.24,1.24,0,0,0-.18-.22h0A1.3,1.3,0,0,0,13.4,30h0l-.26-.14h0a1.54,1.54,0,0,0-.61-.12H11.19a1.55,1.55,0,0,0-.31,0h0l-.28.08h0l-.25.13h0a1.24,1.24,0,0,0-.22.18h0a2,2,0,0,0-.19.22h0a1,1,0,0,0-.15.25h0a1.09,1.09,0,0,0-.12.36,1.91,1.91,0,0,0,0,.37V42a.2.2,0,0,1-.19.19h-2A.2.2,0,0,1,7.23,42V21.28a.7.7,0,1,0-1.4,0V25a.21.21,0,0,1-.2.18H4.18A.18.18,0,0,1,4,25V16.68a.18.18,0,0,1,.18-.19h22a.18.18,0,0,1,.18.19Z"/></svg>