<svg id="Ebene_1" data-name="Ebene 1" xmlns="http://www.w3.org/2000/svg" viewBox="0 0 50 50"><defs><style>.cls-1{fill:#64235b;}</style></defs><path class="cls-1" d="M32.21,11.45A13.55,13.55,0,1,0,45.76,25,13.56,13.56,0,0,0,32.21,11.45ZM44.28,25A12.07,12.07,0,1,1,32.21,12.94,12.08,12.08,0,0,1,44.28,25Z"/><path class="cls-1" d="M21.2,36.6h-.12l0,0a12.28,12.28,0,0,1-3.24.44,12.06,12.06,0,1,1,0-24.12,11.79,11.79,0,0,1,3.22.44h0a.66.66,0,0,0,.25.06.76.76,0,0,0,.75-.75.49.49,0,0,0,0-.12.77.77,0,0,0-.58-.61,13.55,13.55,0,1,0-3.68,26.58,13.33,13.33,0,0,0,3.45-.45.82.82,0,0,0,.7-.77A.74.74,0,0,0,21.2,36.6Z"/></svg>