<svg width="26" height="26" viewBox="0 0 26 26" fill="none" xmlns="http://www.w3.org/2000/svg">
<path d="M13.9191 13.65L21.2589 6.31015C21.5124 6.05665 21.5124 5.64455 21.2589 5.39105C21.0054 5.13755 20.5933 5.13755 20.3398 5.39105L13 12.7309L5.66019 5.39105C5.40669 5.13755 4.99459 5.13755 4.74109 5.39105C4.48759 5.64455 4.48759 6.05665 4.74109 6.31015L12.0809 13.65L4.74109 20.9898C4.48759 21.2433 4.48759 21.6554 4.74109 21.9089C4.86849 22.0363 5.03489 22.0987 5.20129 22.0987C5.36769 22.0987 5.53409 22.035 5.66149 21.9089L13.0013 14.5691L20.3411 21.9089C20.4685 22.0363 20.6349 22.0987 20.8013 22.0987C20.9677 22.0987 21.1341 22.035 21.2615 21.9089C21.515 21.6554 21.515 21.2433 21.2615 20.9898L13.9217 13.65H13.9191Z" fill="black"/>
</svg>
