<svg id="Ebene_1" data-name="Ebene 1" xmlns="http://www.w3.org/2000/svg" viewBox="0 0 50 50"><defs><style>.cls-1{fill:#ef5a39;}</style></defs><path class="cls-1" d="M13.6,23.94a.8.8,0,0,0,.24.57L24.43,35.1a.83.83,0,0,0,1.15,0L36.16,24.51a.8.8,0,0,0,.05-1.09l-.05-.05a.82.82,0,0,0-1.14,0l-9.21,9.21V8.06a.81.81,0,1,0-1.62,0V32.58L15,23.37a.78.78,0,0,0-.57-.24.82.82,0,0,0-.81.81Z"/><path class="cls-1" d="M5.94,34.78a.81.81,0,0,0-.81.81v4.23a2.93,2.93,0,0,0,2.93,2.93H41.94a2.93,2.93,0,0,0,2.93-2.93V35.59a.81.81,0,0,0-1.62,0v4.23a1.31,1.31,0,0,1-1.31,1.31H8.06a1.31,1.31,0,0,1-1.31-1.31V35.59A.81.81,0,0,0,5.94,34.78Z"/></svg>