<svg id="Ebene_1" data-name="Ebene 1" xmlns="http://www.w3.org/2000/svg" viewBox="0 0 50 50"><defs><style>.cls-1{fill:#fff;}</style></defs><path class="cls-1" d="M45.36,18.45a.71.71,0,0,0-.47-.67L25.23,11.23a.72.72,0,0,0-.46,0L5.13,17.77a.72.72,0,0,0-.49.68.71.71,0,0,0,.49.68l6.06,2v6a.71.71,0,0,0,.21.51c.19.19,4.68,4.57,13.6,4.57a23.08,23.08,0,0,0,9-1.73.73.73,0,0,0,.38-.94A.68.68,0,0,0,34,29.2a.7.7,0,0,0-.55,0A21.72,21.72,0,0,1,25,30.83a21.24,21.24,0,0,1-9.4-2.06A15,15,0,0,1,12.76,27l-.13-.11V21.63l12.14,4.05a.72.72,0,0,0,.46,0l12.15-4.05v2.73l-.25.09a2.89,2.89,0,0,0-.21,5.38l.29.13-2,8a.67.67,0,0,0,.13.61.69.69,0,0,0,.56.28h4.37a.72.72,0,0,0,.69-.89l-2-8,.29-.13a2.9,2.9,0,0,0-.21-5.38l-.25-.09V21.15l6.06-2A.71.71,0,0,0,45.36,18.45Zm-6,18.92H36.83l.11-.46,1.15-4.58Zm.2-10.19a1.47,1.47,0,1,1-2.93,0,1.47,1.47,0,0,1,2.93,0Zm-1.34-7.35-.07.08-.21,0L25.12,17.74a.73.73,0,0,0-.83.59.75.75,0,0,0,.13.54.71.71,0,0,0,.46.29l10.25,1.71L25,24.24h0L7.63,18.45,25,12.66h0l17.34,5.78Z"/></svg>