<svg id="Ebene_1" data-name="Ebene 1" xmlns="http://www.w3.org/2000/svg" viewBox="0 0 50 50"><defs><style>.cls-1{fill:#64235b;}</style></defs><path class="cls-1" d="M43.06,27.28l-.49-.55h0L26.83,9.33a2.44,2.44,0,0,0-3.65,0l-16.24,18a.79.79,0,0,0,0,1.12.82.82,0,0,0,1.12-.06l4.14-4.57V38.86a2.63,2.63,0,0,0,2.63,2.63H35.12a2.63,2.63,0,0,0,2.63-2.63V23.78l4.14,4.57a.76.76,0,0,0,.55.26.79.79,0,0,0,.62-1.33ZM28.81,39.9H21.2V31.5a1,1,0,0,1,1-1.05h5.52a1,1,0,0,1,1,1.05Zm7.36-1a1,1,0,0,1-1.05,1H30.4V31.5a2.64,2.64,0,0,0-2.64-2.64H22.24a2.64,2.64,0,0,0-2.63,2.64v8.4H14.88a1,1,0,0,1-1-1V22l0,0L24.36,10.4a.86.86,0,0,1,1.29,0L36.17,22Z"/></svg>