<svg id="Ebene_1" data-name="Ebene 1" xmlns="http://www.w3.org/2000/svg" viewBox="0 0 50 50"><defs><style>.cls-1{fill:#64235b;}</style></defs><path class="cls-1" d="M25.38,44.61a19.61,19.61,0,1,1,19.23-20A19.64,19.64,0,0,1,25.38,44.61ZM24.66,7.13A17.87,17.87,0,1,0,42.87,24.66,17.89,17.89,0,0,0,24.66,7.13Z"/><path class="cls-1" d="M24.91,20.15a.92.92,0,0,0-.9.93l.26,13.24a.91.91,0,1,0,1.82,0L25.84,21A.93.93,0,0,0,24.91,20.15Z"/><path class="cls-1" d="M24.8,14.79a1.35,1.35,0,0,0-1.31,1.36,1.37,1.37,0,0,0,1.37,1.31,1.34,1.34,0,1,0-.06-2.67Z"/></svg>