<svg id="Ebene_1" data-name="Ebene 1" xmlns="http://www.w3.org/2000/svg" viewBox="0 0 50 50"><path d="M33,12a3.12,3.12,0,0,0-3.12-3.12H8.26A3.12,3.12,0,0,0,5.14,12V38a3.12,3.12,0,0,0,3.12,3.12h21.6A3.12,3.12,0,0,0,33,38V30.8a1,1,0,1,0-1.92,0V38a1.2,1.2,0,0,1-1.2,1.2H8.26A1.2,1.2,0,0,1,7.06,38V12a1.2,1.2,0,0,1,1.2-1.2h21.6a1.2,1.2,0,0,1,1.2,1.2v7.53a1,1,0,0,0,1.92,0Z"/><path d="M44.58,25.67a1,1,0,0,0,0-1.35L38.1,17.84a1,1,0,0,0-1.36,0,1,1,0,0,0,0,1.35L41.59,24H23.38a1,1,0,0,0,0,1.92H41.59l-4.85,4.85a.92.92,0,0,0-.27.67,1,1,0,0,0,.27.67,1,1,0,0,0,1.36,0Z"/></svg>