<svg id="Ebene_1" data-name="Ebene 1" xmlns="http://www.w3.org/2000/svg" viewBox="0 0 50 50"><defs><style>.cls-1{fill:#64235b;}</style></defs><path class="cls-1" d="M20.09,31.09a6.35,6.35,0,0,0-1.48,3.69,2.32,2.32,0,0,0,2.32,2.31H38.85a2.31,2.31,0,0,0,2.31-2.31,6.28,6.28,0,0,0-1.47-3.69,8.33,8.33,0,0,0-3.42-2.44,16.92,16.92,0,0,0-6.38-1.07,16.85,16.85,0,0,0-6.38,1.07A8.33,8.33,0,0,0,20.09,31.09Zm9.8-2.15c4.06,0,7.06,1,8.67,2.93a5.05,5.05,0,0,1,1.24,2.91,1,1,0,0,1-.95.94H20.93a1,1,0,0,1-.95-.94h0a5.08,5.08,0,0,1,1.23-2.91C22.83,30,25.83,28.94,29.89,28.94Z"/><path class="cls-1" d="M29.89,12.91a6.39,6.39,0,1,0,6.38,6.39A6.4,6.4,0,0,0,29.89,12.91Zm0,11.41a5,5,0,1,1,5-5A5,5,0,0,1,29.89,24.32Z"/><path class="cls-1" d="M17.71,29.23c-.29,0-.58,0-.86,0a11,11,0,0,0-4.51.82,6,6,0,0,0-2.45,1.89,5.17,5.17,0,0,0-1.05,2.86,2.31,2.31,0,0,0,2.31,2.31h4.92a.69.69,0,0,0,.65-.68.67.67,0,0,0-.68-.68H11.15a1,1,0,0,1-1-.95c0-.17.18-4.21,6.66-4.21l.77,0a.71.71,0,0,0,.5-.17.69.69,0,0,0,.22-.47A.68.68,0,0,0,17.71,29.23Z"/><path class="cls-1" d="M16.85,17.8a4.76,4.76,0,1,0,4.76,4.76A4.76,4.76,0,0,0,16.85,17.8Zm0,8.15a3.4,3.4,0,1,1,3.39-3.39A3.39,3.39,0,0,1,16.85,26Z"/></svg>