<svg id="Ebene_1" data-name="Ebene 1" xmlns="http://www.w3.org/2000/svg" viewBox="0 0 50 50"><defs><style>.cls-1{fill:#64235b;}</style></defs><path class="cls-1" d="M11,38.27a.78.78,0,0,1-.4-1.45,9.74,9.74,0,0,0,4.12-5,10.7,10.7,0,0,1-4.5-8.42,9.57,9.57,0,0,1,1.2-4.63,12,12,0,0,1,3.22-3.71A17,17,0,0,1,25,11.73,17,17,0,0,1,35.41,15.1a12,12,0,0,1,3.22,3.71,9.53,9.53,0,0,1,0,9.26,12,12,0,0,1-3.22,3.71A17,17,0,0,1,25,35.15a18.43,18.43,0,0,1-4.71-.6,35.13,35.13,0,0,1-3.41,2A14.09,14.09,0,0,1,11,38.27ZM25,13.29c-7.32,0-13.27,4.55-13.27,10.15A9.31,9.31,0,0,0,16,30.92a.79.79,0,0,1,.31.84,10.65,10.65,0,0,1-2.47,4.35,26.06,26.06,0,0,0,5.84-3.06.77.77,0,0,1,.66-.1,17,17,0,0,0,4.63.64c7.32,0,13.27-4.56,13.27-10.15S32.32,13.29,25,13.29Z"/></svg>