<svg id="Ebene_1" data-name="Ebene 1" xmlns="http://www.w3.org/2000/svg" viewBox="0 0 50 50"><defs><style>.cls-1{fill:#fff;}</style></defs><path class="cls-1" d="M6.11,37.39a.68.68,0,0,1-.35-1.27,8.4,8.4,0,0,0,3.59-4.33,9.31,9.31,0,0,1-3.92-7.34,8.37,8.37,0,0,1,1-4,10.64,10.64,0,0,1,2.81-3.25,14.81,14.81,0,0,1,9.08-2.93,14.84,14.84,0,0,1,9.09,2.93,10.6,10.6,0,0,1,2.8,3.25,8.28,8.28,0,0,1,0,8.07,10.69,10.69,0,0,1-2.8,3.24,14.84,14.84,0,0,1-9.09,2.93,16,16,0,0,1-4.1-.52,29.31,29.31,0,0,1-3,1.73,12.2,12.2,0,0,1-5.17,1.52ZM18.36,15.6c-6.38,0-11.57,4-11.57,8.85A8.14,8.14,0,0,0,10.54,31a.67.67,0,0,1,.27.73,9.48,9.48,0,0,1-2.15,3.8,23.59,23.59,0,0,0,5.09-2.67.69.69,0,0,1,.57-.1,14.65,14.65,0,0,0,4,.56c6.38,0,11.58-4,11.58-8.85S24.74,15.6,18.36,15.6Z"/><path class="cls-1" d="M44.25,29.48a6.26,6.26,0,0,1-2.67-3.16,7.35,7.35,0,0,0,3-5.7,6.66,6.66,0,0,0-.82-3.18,8.24,8.24,0,0,0-2.2-2.54,11.58,11.58,0,0,0-7.08-2.29,11.9,11.9,0,0,0-6.19,1.68h0a.66.66,0,0,0-.37.6.67.67,0,0,0,.67.66.59.59,0,0,0,.37-.12,10.57,10.57,0,0,1,5.52-1.49c4.84,0,8.77,3,8.77,6.68a6.12,6.12,0,0,1-2.83,4.91.67.67,0,0,0-.26.71,7.51,7.51,0,0,0,1.33,2.57A19.19,19.19,0,0,1,38.1,27a.63.63,0,0,0-.37-.12l-.18,0a11.28,11.28,0,0,1-3.08.42c-.37,0-.73,0-1.09-.05h-.06a.66.66,0,0,0-.16,1.3.69.69,0,0,0,.18,0,10.55,10.55,0,0,0,1.13.06,12.56,12.56,0,0,0,3.14-.39,21.86,21.86,0,0,0,2.26,1.3,9.48,9.48,0,0,0,4,1.19H44a.66.66,0,0,0,.58-.48A.68.68,0,0,0,44.25,29.48Z"/></svg>