<svg id="Ebene_1" data-name="Ebene 1" xmlns="http://www.w3.org/2000/svg" viewBox="0 0 50 50"><defs><style>.cls-1{fill:#64235b;}</style></defs><path class="cls-1" d="M33,35.05a12.62,12.62,0,1,1,6.29-1.69h0A12.49,12.49,0,0,1,33,35.05Zm0-23.81a11.19,11.19,0,1,0,5.61,20.89h0a11.2,11.2,0,0,0-2.7-20.51A11.57,11.57,0,0,0,32.92,11.24Zm6,21.51h0Z"/><path class="cls-1" d="M21.2,32.38a.71.71,0,0,0-.72-1.22L7.57,38.61a1.13,1.13,0,1,1-1.13-2L19.35,29.2a.7.7,0,0,0,.26-1,.71.71,0,0,0-1-.27h0L5.73,35.43a2.55,2.55,0,1,0,2.55,4.41L21.2,32.39Z"/></svg>