<svg id="Ebene_1" data-name="Ebene 1" xmlns="http://www.w3.org/2000/svg" viewBox="0 0 50 50"><defs><style>.cls-1{fill:#fff;}</style></defs><path class="cls-1" d="M6.25,43a1.72,1.72,0,0,1-1.74-1.75V26.85a.74.74,0,0,1,.68-.75l15.06-1.26L5.19,23.58a.74.74,0,0,1-.68-.75V8.74A1.74,1.74,0,0,1,7,7.13L44.44,23.39h0a1.74,1.74,0,0,1,0,3.2L7,42.87A1.86,1.86,0,0,1,6.25,43ZM6,27.54V41.26a.25.25,0,0,0,.11.21.22.22,0,0,0,.23,0L43.84,25.23a.25.25,0,0,0,0-.46L6.35,8.51a.22.22,0,0,0-.23,0A.25.25,0,0,0,6,8.74v13.4l23.31,1.95a.75.75,0,0,1,0,1.5Z"/></svg>