<svg id="Ebene_1" data-name="Ebene 1" xmlns="http://www.w3.org/2000/svg" viewBox="0 0 50 50"><defs><style>.cls-1{fill:#ef5a39;}</style></defs><path class="cls-1" d="M13.38,42.67,25,36.33l11.62,6.34a.49.49,0,0,0,.52,0,.5.5,0,0,0,.2-.48L35.22,29.48,43.66,21a.49.49,0,0,0,.12-.5.47.47,0,0,0-.38-.34L30.71,18.09,25.44,7.54a.49.49,0,0,0-.88,0L19.29,18.09,6.6,20.2a.47.47,0,0,0-.38.34.49.49,0,0,0,.12.5l8.44,8.44L12.66,42.16a.5.5,0,0,0,.2.48A.49.49,0,0,0,13.38,42.67Zm3-13.18a1,1,0,0,0-.3-.94L8.92,21.41,19.79,19.6a1.12,1.12,0,0,0,.79-.58L25,10.17,29.42,19a1.12,1.12,0,0,0,.79.58l10.87,1.81-7.14,7.14a1.08,1.08,0,0,0-.31.94l1.8,10.74-9.92-5.4A1,1,0,0,0,25,34.7a1.08,1.08,0,0,0-.52.13l-9.91,5.4Z"/></svg>