<svg id="Ebene_1" data-name="Ebene 1" xmlns="http://www.w3.org/2000/svg" viewBox="0 0 50 50"><defs><style>.cls-1{fill:#ef5a39;}</style></defs><path class="cls-1" d="M21,40.39A16.14,16.14,0,1,0,26,8.86a.81.81,0,1,0,0,1.61,14.52,14.52,0,1,1-13.35,8.37L13,21.35a.8.8,0,1,0,1.59-.24l-.74-4.81h0a.74.74,0,0,0-.19-.41.81.81,0,0,0-1-.18L8.47,17.93a.81.81,0,0,0,.75,1.43l1.87-1a16.13,16.13,0,0,0,9.88,22Z"/><path class="cls-1" d="M26.65,25.08s0,0,0-.08V12.76a.81.81,0,0,0-1.62,0V23.47L19.41,19.6a.8.8,0,0,0-1.12.2.82.82,0,0,0,.2,1.13l6.91,4.73s0,0,.05,0a.83.83,0,0,0,.41.13.78.78,0,0,0,.34-.09l.08,0a.86.86,0,0,0,.2-.18l0,0a.36.36,0,0,0,0-.07.77.77,0,0,0,.07-.16Z"/></svg>