<svg id="Ebene_1" data-name="Ebene 1" xmlns="http://www.w3.org/2000/svg" viewBox="0 0 50 50"><path d="M14.09,31.78a7.09,7.09,0,0,0-1.65,4.11A2.59,2.59,0,0,0,15,38.47H35a2.59,2.59,0,0,0,2.58-2.58,7.06,7.06,0,0,0-1.65-4.11,9.34,9.34,0,0,0-3.8-2.72A18.88,18.88,0,0,0,25,27.87a18.8,18.8,0,0,0-7.11,1.19A9.34,9.34,0,0,0,14.09,31.78ZM25,29.39c4.53,0,7.87,1.13,9.66,3.26A5.68,5.68,0,0,1,36,35.89,1.06,1.06,0,0,1,35,37H15A1.06,1.06,0,0,1,14,35.9h0a5.68,5.68,0,0,1,1.38-3.24C17.14,30.52,20.48,29.39,25,29.39Z"/><path d="M25,11.53a7.12,7.12,0,1,0,7.11,7.12A7.13,7.13,0,0,0,25,11.53Zm0,12.71a5.6,5.6,0,1,1,5.59-5.59A5.6,5.6,0,0,1,25,24.24Z"/></svg>