<svg xmlns="http://www.w3.org/2000/svg" xmlns:xlink="http://www.w3.org/1999/xlink" viewBox="0 0 500 344"><defs><style>.cls-1{fill:#f2ddf2;}.cls-2{fill:#222;}.cls-3{fill:#e0dfe0;}.cls-4{fill:#c697c4;}.cls-5{fill:url(#Unbenannter_Verlauf_76);}.cls-6{fill:url(#Unbenannter_Verlauf_113);}.cls-7{fill:url(#Unbenannter_Verlauf_106);}.cls-8{fill:url(#Unbenannter_Verlauf_99);}.cls-9{fill:#e2bfe0;}</style><linearGradient id="Unbenannter_Verlauf_76" x1="256.38" y1="102.68" x2="256.38" y2="206.27" gradientUnits="userSpaceOnUse"><stop offset="0" stop-color="#3a0c36"/><stop offset="0.13" stop-color="#64235b"/><stop offset="0.38" stop-color="#5f2056"/><stop offset="0.7" stop-color="#4f1748"/><stop offset="1" stop-color="#3a0c36"/></linearGradient><linearGradient id="Unbenannter_Verlauf_113" x1="256.53" y1="248.5" x2="256.53" y2="183.5" gradientUnits="userSpaceOnUse"><stop offset="0" stop-color="#b21f0b"/><stop offset="0.37" stop-color="#b5210c"/><stop offset="0.63" stop-color="#be2610"/><stop offset="0.85" stop-color="#cd3018"/><stop offset="1" stop-color="#dd3a1f"/></linearGradient><linearGradient id="Unbenannter_Verlauf_106" x1="209.63" y1="265.5" x2="209.63" y2="186.5" gradientUnits="userSpaceOnUse"><stop offset="0" stop-color="#ef5a39"/><stop offset="0.07" stop-color="#eb5333"/><stop offset="0.29" stop-color="#e34528"/><stop offset="0.56" stop-color="#de3d21"/><stop offset="1" stop-color="#dd3a1f"/></linearGradient><linearGradient id="Unbenannter_Verlauf_99" x1="303.13" y1="262.5" x2="303.13" y2="183.5" xlink:href="#Unbenannter_Verlauf_106"/></defs><g id="_404" data-name="404"><path class="cls-1" d="M347,130c.17-.19.89-1.84,1-2,4-6,8-5,10-14,.78-3.52,5-18-2-11-2.52,2.52-11.64,11.84-15,11s-.48-11-3-11-4,16-2,18c.81.81,1.58,3.4,1,4s-.81,1.84-1,2Z"/><path class="cls-1" d="M166,132a7.84,7.84,0,0,1-1-3c0-7.21-11-8-13-17-.78-3.52,0-16,4-11,2.24,2.77,11.65,11.84,15,11s.44-8,3-8,4,13,2,15c-.8.81-2,3,1,7Z"/><path class="cls-2" d="M308,100c-5.33-3.55,4-19-10-25-7.18-3.08,4-26-13-31-8.23-2.42-4.74-18.75-28.7-20l0,0H254l0,0c-23,.89-18.26,10-28,13-14.17,4.37-8,25-15,28-16.87,7.23-2,30-10,35-12.23,7.64,17.78,5.55,21,5,9.56-1.46,17.94-.92,33-1,15.06.08,25.44-.46,35,1C293.22,105.55,323,110,308,100Z"/><ellipse class="cls-3" cx="251.5" cy="257" rx="220.5" ry="27"/><rect class="cls-4" x="243" y="95" width="24" height="33"/><path class="cls-5" d="M348,128c-2.53,1.26-11-2-11-3s-15,28-14,36c-2.82-7.51-14.46-49.42-33.26-55.32C281.59,102.09,271.49,103,267,103c0,15-5.07,15.66-12.07,15.66S243,118,243,103c-4.71,0-12.94-1.48-20.75,2-18.34,6.8-29.69,47.64-32.47,55.05,1-8-14-37-14-36s-8.47,4.26-11,3c-2-1,9.94,57.7,23.22,59,10.22,1,25-19,27-29,2,17,3.87,34.52,5,37,5,11,37.78,11.16,37.78,11.16S286.13,209.82,288,200c4-21,4.13-19.18,8-39.16,8.69,15.84,21.13,27.5,27,26.16C336,184,350,127,348,128Z"/><path class="cls-6" d="M166.15,186.5s76,10,87,10c40,0,92-13,92-13s11,25-22,39-57,26-67,26-48-13-67-22S166.15,186.5,166.15,186.5Z"/><path class="cls-1" d="M277.15,267.5c-3.07-.77-5-1-7-2-6-3,1-18,7-16,3,1,6,2,7,2C299.28,251.5,293.15,271.5,277.15,267.5Z"/><path class="cls-7" d="M277.15,249.5c-11-4-62-24-82-49a36.64,36.64,0,0,0-29-14c-14,0-23.32,7-24,18-1,16,27,32,43,40,13.88,6.94,78,20,85,21-2-2-.42-5.76,1-10C272.15,252.5,274.15,249.5,277.15,249.5Z"/><path class="cls-2" d="M289.15,260.5c-1,4-4,6-12,7,8,3,12,5,23,5,6,0,23-2,23-9s-9-11-20-13c-4.92-.89-17-1-19,1C288.15,254.5,289.87,257.59,289.15,260.5Z"/><path class="cls-1" d="M235.62,264.5c3.07-.77,5-1,7-2,6-3-1-18-7-16-3,1-6,2-7,2C213.49,248.5,219.62,268.5,235.62,264.5Z"/><path class="cls-8" d="M235.62,246.5c11-4,62-24,82-49a36.63,36.63,0,0,1,29-14c14,0,23.31,7,24,18,1,16-27,32-43,40-13.89,6.94-78,20-85,21,2-2,.41-5.76-1-10C240.62,249.5,238.62,246.5,235.62,246.5Z"/><path class="cls-2" d="M223.62,257.5c1,4,4,6,12,7-8,3-12,5-23,5-6,0-23-2-23-9s9-11,20-13c4.92-.89,17-1,19,1C224.62,251.5,222.89,254.59,223.62,257.5Z"/><path class="cls-9" d="M255.15,37.5c-13.81,0-25,12.31-25,27.5,0,7.75,6.36,35.5,25,35.5s25-27.75,25-35.5C280.15,49.81,269,37.5,255.15,37.5Z"/><path class="cls-2" d="M283,86c-1.62,12.09-.32-5.63-9-23-3-6-13-2-19-12-9,3-11,13-18,14-7.21,1-3,27-8,16,0,0-12.85-56.5,27.15-56.5C290.15,24.5,283,86,283,86Z"/></g></svg>