<svg width="159" height="35" viewBox="0 0 159 35" fill="none" xmlns="http://www.w3.org/2000/svg">
<path d="M51.0613 8.14589L26.431 0.0686565C26.1492 -0.0228855 25.8454 -0.0228855 25.5662 0.0686565L0.935951 8.14589C0.377664 8.32897 0 8.84322 0 9.42209C0 10.001 0.377664 10.5152 0.935951 10.6983L8.21009 13.0838V20.1917C8.21009 20.5498 8.35514 20.8918 8.60965 21.1449C8.85048 21.3818 14.614 26.9228 25.9986 26.9228C30.1393 26.9228 34.0007 26.1904 37.4791 24.7446C38.1742 24.4565 38.4999 23.6649 38.207 22.9811C37.9142 22.2972 37.1096 21.9768 36.4145 22.2649C33.2755 23.5707 29.7725 24.2304 26.0014 24.2304C20.6785 24.2304 16.7623 22.8734 14.4142 21.7372C12.6764 20.8945 11.5133 20.0437 10.9495 19.5859V13.983L25.569 18.7782C25.7085 18.824 25.8563 18.8482 26.0014 18.8482C26.1464 18.8482 26.2942 18.824 26.4338 18.7782L41.0532 13.983V16.3847C39.4605 16.9393 38.3165 18.4363 38.3165 20.1917C38.3165 21.8368 39.3209 23.253 40.7576 23.883L38.3576 33.328C38.2563 33.7292 38.3466 34.1573 38.6066 34.4831C38.8666 34.8088 39.2634 35 39.6849 35H45.1583C45.5797 35 45.9765 34.8088 46.2365 34.4831C46.4965 34.1573 46.5868 33.7292 46.4856 33.328L44.0855 23.883C45.5222 23.253 46.5266 21.8368 46.5266 20.1917C46.5266 18.4363 45.3827 16.9393 43.7899 16.3847V13.0838L51.0641 10.6983C51.6223 10.5152 52 10.001 52 9.42209C52 8.84322 51.6223 8.32897 51.0641 8.14589H51.0613ZM42.4188 18.8455C43.1741 18.8455 43.7872 19.4486 43.7872 20.1917C43.7872 20.9348 43.1741 21.5379 42.4188 21.5379C41.6635 21.5379 41.0505 20.9348 41.0505 20.1917C41.0505 19.4486 41.6635 18.8455 42.4188 18.8455ZM41.4336 32.3076L42.4188 28.4359L43.404 32.3076H41.4363H41.4336ZM42.3094 10.7306L26.2258 8.09204C25.4787 7.97088 24.7753 8.46629 24.6522 9.19862C24.529 9.93096 25.0326 10.6256 25.777 10.7468L36.7621 12.548L26.0014 16.0777L5.69781 9.4194L26.0014 2.76107L46.3049 9.4194L42.3121 10.7279L42.3094 10.7306Z" fill="#C4C4C4"/>
<path d="M51.0613 8.14589L26.431 0.0686565C26.1492 -0.0228855 25.8454 -0.0228855 25.5662 0.0686565L0.935951 8.14589C0.377664 8.32897 0 8.84322 0 9.42209C0 10.001 0.377664 10.5152 0.935951 10.6983L8.21009 13.0838V20.1917C8.21009 20.5498 8.35514 20.8918 8.60965 21.1449C8.85048 21.3818 14.614 26.9228 25.9986 26.9228C30.1393 26.9228 34.0007 26.1904 37.4791 24.7446C38.1742 24.4565 38.4999 23.6649 38.207 22.9811C37.9142 22.2972 37.1096 21.9768 36.4145 22.2649C33.2755 23.5707 29.7725 24.2304 26.0014 24.2304C20.6785 24.2304 16.7623 22.8734 14.4142 21.7372C12.6764 20.8945 11.5133 20.0437 10.9495 19.5859V13.983L25.569 18.7782C25.7085 18.824 25.8563 18.8482 26.0014 18.8482C26.1464 18.8482 26.2942 18.824 26.4338 18.7782L41.0532 13.983V16.3847C39.4605 16.9393 38.3165 18.4363 38.3165 20.1917C38.3165 21.8368 39.3209 23.253 40.7576 23.883L38.3576 33.328C38.2563 33.7292 38.3466 34.1573 38.6066 34.4831C38.8666 34.8088 39.2634 35 39.6849 35H45.1583C45.5797 35 45.9765 34.8088 46.2365 34.4831C46.4965 34.1573 46.5868 33.7292 46.4856 33.328L44.0855 23.883C45.5222 23.253 46.5266 21.8368 46.5266 20.1917C46.5266 18.4363 45.3827 16.9393 43.7899 16.3847V13.0838L51.0641 10.6983C51.6223 10.5152 52 10.001 52 9.42209C52 8.84322 51.6223 8.32897 51.0641 8.14589H51.0613ZM42.4188 18.8455C43.1741 18.8455 43.7872 19.4486 43.7872 20.1917C43.7872 20.9348 43.1741 21.5379 42.4188 21.5379C41.6635 21.5379 41.0505 20.9348 41.0505 20.1917C41.0505 19.4486 41.6635 18.8455 42.4188 18.8455ZM41.4336 32.3076L42.4188 28.4359L43.404 32.3076H41.4363H41.4336ZM42.3094 10.7306L26.2258 8.09204C25.4787 7.97088 24.7753 8.46629 24.6522 9.19862C24.529 9.93096 25.0326 10.6256 25.777 10.7468L36.7621 12.548L26.0014 16.0777L5.69781 9.4194L26.0014 2.76107L46.3049 9.4194L42.3121 10.7279L42.3094 10.7306Z" fill="url(#paint0_linear)"/>
<path d="M72.772 13.11C71.188 13.11 69.78 14.1 69.164 15.068C68.812 13.902 67.844 13.11 66.26 13.11C64.654 13.11 63.246 14.188 62.806 14.826V14.408C62.806 13.77 62.278 13.242 61.64 13.242C61.024 13.242 60.496 13.77 60.496 14.408V22.966C60.496 23.604 61.024 24.132 61.662 24.132C62.278 24.132 62.806 23.604 62.806 22.966V16.586C63.29 15.882 64.236 15.156 65.248 15.156C66.502 15.156 67.008 15.926 67.008 17.07V22.966C67.008 23.604 67.536 24.132 68.152 24.132C68.79 24.132 69.318 23.604 69.318 22.966V16.564C69.78 15.882 70.748 15.156 71.782 15.156C73.014 15.156 73.52 15.926 73.52 17.07V22.966C73.52 23.604 74.048 24.132 74.664 24.132C75.302 24.132 75.83 23.604 75.83 22.966V16.322C75.83 14.166 74.73 13.11 72.772 13.11ZM78.3822 27.278C78.3822 27.828 78.8002 28.246 79.3282 28.29C79.4602 28.312 79.5702 28.312 79.6582 28.312C81.3082 28.29 82.5842 27.718 83.3102 25.914L87.8422 14.826C87.8862 14.694 87.9302 14.54 87.9302 14.386C87.9302 13.748 87.4242 13.242 86.7862 13.242C86.3022 13.242 85.8622 13.55 85.7082 13.968L82.8482 21.338L79.9882 13.968C79.8342 13.55 79.3942 13.242 78.9102 13.242C78.2942 13.242 77.7882 13.748 77.7882 14.386C77.7882 14.54 77.8102 14.672 77.8542 14.804L81.6382 24.132L81.1102 25.342C80.8022 26.046 80.3182 26.266 79.5922 26.266H79.4822C78.9102 26.266 78.3822 26.706 78.3822 27.278ZM103.901 24.132C104.627 24.132 105.199 23.538 105.199 22.834V11.328C105.199 10.162 104.253 9.194 103.065 9.194C102.163 9.194 101.393 9.744 101.085 10.536L97.5646 19.204L94.0666 10.536C93.7586 9.744 92.9886 9.194 92.0866 9.194C90.8986 9.194 89.9526 10.162 89.9526 11.328V22.834C89.9526 23.538 90.5246 24.132 91.2506 24.132C91.9546 24.132 92.5266 23.538 92.5266 22.834V12.89L96.8826 23.67C96.9926 23.956 97.2566 24.132 97.5646 24.132C97.8726 24.132 98.1366 23.956 98.2466 23.67L102.625 12.89V22.834C102.625 23.538 103.197 24.132 103.901 24.132ZM107.596 18.676C107.596 22.042 109.972 24.264 113.162 24.264C114.504 24.264 115.78 23.934 116.836 23.23C117.078 23.054 117.254 22.79 117.254 22.46C117.254 21.954 116.836 21.536 116.33 21.536C116.132 21.536 115.956 21.58 115.824 21.668C115.076 22.13 114.174 22.372 113.404 22.372C111.402 22.372 110.192 21.052 110.016 19.446H116.858C117.738 19.446 118.222 19.05 118.222 18.368C118.222 15.552 116.176 13.11 112.986 13.11C109.84 13.11 107.596 15.596 107.596 18.676ZM112.986 15.002C115.076 15.002 115.934 16.564 115.978 17.818H109.994C110.104 16.52 111.006 15.002 112.986 15.002ZM126.552 13.11C124.88 13.11 123.516 13.99 122.812 14.826V14.408C122.812 13.77 122.284 13.242 121.646 13.242C121.03 13.242 120.502 13.77 120.502 14.408V22.966C120.502 23.604 121.03 24.132 121.668 24.132C122.284 24.132 122.812 23.604 122.812 22.966V16.586C123.34 15.86 124.352 15.156 125.54 15.156C126.838 15.156 127.674 15.706 127.674 17.356V22.966C127.674 23.604 128.202 24.132 128.818 24.132C129.456 24.132 129.984 23.604 129.984 22.966V16.52C129.984 14.342 128.84 13.11 126.552 13.11ZM137.34 22.152C137.164 22.152 137.032 22.218 136.768 22.218C136.108 22.218 135.756 21.69 135.756 20.964V15.398H137.032C137.582 15.398 138.044 14.936 138.044 14.386C138.044 13.836 137.582 13.374 137.032 13.374H135.756V11.504C135.756 10.866 135.228 10.338 134.612 10.338C133.974 10.338 133.446 10.866 133.446 11.504V13.374H132.566C132.016 13.374 131.554 13.836 131.554 14.386C131.554 14.936 132.016 15.398 132.566 15.398H133.446V21.536C133.446 23.296 134.392 24.264 136.174 24.264C136.812 24.264 137.318 24.154 137.692 24C138.066 23.868 138.308 23.56 138.308 23.12C138.308 22.57 137.934 22.152 137.34 22.152ZM144.806 24.264C148.216 24.264 150.284 21.734 150.284 18.676C150.284 15.64 148.216 13.11 144.806 13.11C141.44 13.11 139.35 15.64 139.35 18.676C139.35 21.734 141.44 24.264 144.806 24.264ZM144.806 22.218C142.848 22.218 141.748 20.568 141.748 18.676C141.748 16.806 142.848 15.156 144.806 15.156C146.786 15.156 147.886 16.806 147.886 18.676C147.886 20.568 146.786 22.218 144.806 22.218ZM157.593 13.198C157.395 13.198 157.241 13.242 156.977 13.33C156.295 13.55 155.503 14.188 154.931 14.936V14.408C154.931 13.77 154.403 13.242 153.765 13.242C153.149 13.242 152.621 13.77 152.621 14.408V22.966C152.621 23.604 153.149 24.132 153.787 24.132C154.403 24.132 154.931 23.604 154.931 22.966V16.762C155.393 16.014 156.559 15.486 157.351 15.376C158.143 15.266 158.539 14.804 158.539 14.276C158.539 13.704 158.253 13.198 157.593 13.198Z" fill="#222222"/>
<defs>
<linearGradient id="paint0_linear" x1="26" y1="0" x2="26" y2="35" gradientUnits="userSpaceOnUse">
<stop stop-color="#EF5A39"/>
<stop offset="1" stop-color="#64235B"/>
</linearGradient>
</defs>
</svg>
