<svg width="300" height="71" viewBox="0 0 300 71" fill="none" xmlns="http://www.w3.org/2000/svg">
<path d="M102.919 16.5245L53.2744 0.139275C52.7062 -0.0464249 52.094 -0.0464249 51.5313 0.139275L1.8865 16.5245C0.76122 16.8959 0 17.9391 0 19.1134C0 20.2877 0.76122 21.3309 1.8865 21.7023L16.5483 26.5414V40.9604C16.5483 41.6868 16.8406 42.3804 17.3536 42.8938C17.839 43.3745 29.4559 54.6148 52.4029 54.6148C60.7487 54.6148 68.5319 53.1292 75.5428 50.1962C76.9439 49.6118 77.6004 48.006 77.0101 46.6188C76.4199 45.2315 74.7982 44.5815 73.3971 45.1659C67.0701 47.8149 60.0095 49.153 52.4084 49.153C41.6796 49.153 33.7861 46.4003 29.0532 44.0954C25.5505 42.3859 23.2062 40.66 22.0699 39.7315V28.3656L51.5368 38.093C51.8181 38.1858 52.116 38.235 52.4084 38.235C52.7007 38.235 52.9986 38.1858 53.2799 38.093L82.7469 28.3656V33.2375C79.5365 34.3626 77.2308 37.3993 77.2308 40.9604C77.2308 44.2975 79.2552 47.1704 82.1511 48.4484L77.3135 67.6083C77.1094 68.4221 77.2915 69.2905 77.8155 69.9513C78.3395 70.6122 79.1393 71 79.9888 71H91.021C91.8705 71 92.6703 70.6122 93.1943 69.9513C93.7184 69.2905 93.9004 68.4221 93.6963 67.6083L88.8587 48.4484C91.7546 47.1704 93.779 44.2975 93.779 40.9604C93.779 37.3993 91.4733 34.3626 88.263 33.2375V26.5414L102.925 21.7023C104.05 21.3309 104.811 20.2877 104.811 19.1134C104.811 17.9391 104.05 16.8959 102.925 16.5245H102.919ZM85.4994 38.2295C87.0218 38.2295 88.2574 39.4529 88.2574 40.9604C88.2574 42.4678 87.0218 43.6913 85.4994 43.6913C83.977 43.6913 82.7413 42.4678 82.7413 40.9604C82.7413 39.4529 83.977 38.2295 85.4994 38.2295ZM83.5136 65.5383L85.4994 57.6843L87.4852 65.5383H83.5191H83.5136ZM85.2787 21.7678L52.8607 16.4153C51.3548 16.1695 49.9372 17.1745 49.6889 18.6601C49.4407 20.1457 50.4557 21.5548 51.9561 21.8006L74.0976 25.4545L52.4084 32.6148L11.4845 19.1079L52.4084 5.60102L93.3322 19.1079L85.2843 21.7623L85.2787 21.7678Z" fill="#C4C4C4"/>
<path d="M102.919 16.5245L53.2744 0.139275C52.7062 -0.0464249 52.094 -0.0464249 51.5313 0.139275L1.8865 16.5245C0.76122 16.8959 0 17.9391 0 19.1134C0 20.2877 0.76122 21.3309 1.8865 21.7023L16.5483 26.5414V40.9604C16.5483 41.6868 16.8406 42.3804 17.3536 42.8938C17.839 43.3745 29.4559 54.6148 52.4029 54.6148C60.7487 54.6148 68.5319 53.1292 75.5428 50.1962C76.9439 49.6118 77.6004 48.006 77.0101 46.6188C76.4199 45.2315 74.7982 44.5815 73.3971 45.1659C67.0701 47.8149 60.0095 49.153 52.4084 49.153C41.6796 49.153 33.7861 46.4003 29.0532 44.0954C25.5505 42.3859 23.2062 40.66 22.0699 39.7315V28.3656L51.5368 38.093C51.8181 38.1858 52.116 38.235 52.4084 38.235C52.7007 38.235 52.9986 38.1858 53.2799 38.093L82.7469 28.3656V33.2375C79.5365 34.3626 77.2308 37.3993 77.2308 40.9604C77.2308 44.2975 79.2552 47.1704 82.1511 48.4484L77.3135 67.6083C77.1094 68.4221 77.2915 69.2905 77.8155 69.9513C78.3395 70.6122 79.1393 71 79.9888 71H91.021C91.8705 71 92.6703 70.6122 93.1943 69.9513C93.7184 69.2905 93.9004 68.4221 93.6963 67.6083L88.8587 48.4484C91.7546 47.1704 93.779 44.2975 93.779 40.9604C93.779 37.3993 91.4733 34.3626 88.263 33.2375V26.5414L102.925 21.7023C104.05 21.3309 104.811 20.2877 104.811 19.1134C104.811 17.9391 104.05 16.8959 102.925 16.5245H102.919ZM85.4994 38.2295C87.0218 38.2295 88.2574 39.4529 88.2574 40.9604C88.2574 42.4678 87.0218 43.6913 85.4994 43.6913C83.977 43.6913 82.7413 42.4678 82.7413 40.9604C82.7413 39.4529 83.977 38.2295 85.4994 38.2295ZM83.5136 65.5383L85.4994 57.6843L87.4852 65.5383H83.5191H83.5136ZM85.2787 21.7678L52.8607 16.4153C51.3548 16.1695 49.9372 17.1745 49.6889 18.6601C49.4407 20.1457 50.4557 21.5548 51.9561 21.8006L74.0976 25.4545L52.4084 32.6148L11.4845 19.1079L52.4084 5.60102L93.3322 19.1079L85.2843 21.7623L85.2787 21.7678Z" fill="url(#paint0_linear)"/>
<path d="M143.04 27.2C140.16 27.2 137.6 29 136.48 30.76C135.84 28.64 134.08 27.2 131.2 27.2C128.28 27.2 125.72 29.16 124.92 30.32V29.56C124.92 28.4 123.96 27.44 122.8 27.44C121.68 27.44 120.72 28.4 120.72 29.56V45.12C120.72 46.28 121.68 47.24 122.84 47.24C123.96 47.24 124.92 46.28 124.92 45.12V33.52C125.8 32.24 127.52 30.92 129.36 30.92C131.64 30.92 132.56 32.32 132.56 34.4V45.12C132.56 46.28 133.52 47.24 134.64 47.24C135.8 47.24 136.76 46.28 136.76 45.12V33.48C137.6 32.24 139.36 30.92 141.24 30.92C143.48 30.92 144.4 32.32 144.4 34.4V45.12C144.4 46.28 145.36 47.24 146.48 47.24C147.64 47.24 148.6 46.28 148.6 45.12V33.04C148.6 29.12 146.6 27.2 143.04 27.2ZM153.24 52.96C153.24 53.96 154 54.72 154.96 54.8C155.2 54.84 155.4 54.84 155.56 54.84C158.56 54.8 160.88 53.76 162.2 50.48L170.44 30.32C170.52 30.08 170.6 29.8 170.6 29.52C170.6 28.36 169.68 27.44 168.52 27.44C167.64 27.44 166.84 28 166.56 28.76L161.36 42.16L156.16 28.76C155.88 28 155.08 27.44 154.2 27.44C153.08 27.44 152.16 28.36 152.16 29.52C152.16 29.8 152.2 30.04 152.28 30.28L159.16 47.24L158.2 49.44C157.64 50.72 156.76 51.12 155.44 51.12H155.24C154.2 51.12 153.24 51.92 153.24 52.96ZM199.638 47.24C200.958 47.24 201.998 46.16 201.998 44.88V23.96C201.998 21.84 200.278 20.08 198.118 20.08C196.478 20.08 195.078 21.08 194.518 22.52L188.118 38.28L181.758 22.52C181.198 21.08 179.798 20.08 178.158 20.08C175.998 20.08 174.278 21.84 174.278 23.96V44.88C174.278 46.16 175.318 47.24 176.638 47.24C177.918 47.24 178.958 46.16 178.958 44.88V26.8L186.878 46.4C187.078 46.92 187.558 47.24 188.118 47.24C188.678 47.24 189.158 46.92 189.358 46.4L197.318 26.8V44.88C197.318 46.16 198.358 47.24 199.638 47.24ZM206.356 37.32C206.356 43.44 210.676 47.48 216.476 47.48C218.916 47.48 221.236 46.88 223.156 45.6C223.596 45.28 223.916 44.8 223.916 44.2C223.916 43.28 223.156 42.52 222.236 42.52C221.876 42.52 221.556 42.6 221.316 42.76C219.956 43.6 218.316 44.04 216.916 44.04C213.276 44.04 211.076 41.64 210.756 38.72H223.196C224.796 38.72 225.676 38 225.676 36.76C225.676 31.64 221.956 27.2 216.156 27.2C210.436 27.2 206.356 31.72 206.356 37.32ZM216.156 30.64C219.956 30.64 221.516 33.48 221.596 35.76H210.716C210.916 33.4 212.556 30.64 216.156 30.64ZM240.822 27.2C237.782 27.2 235.302 28.8 234.022 30.32V29.56C234.022 28.4 233.062 27.44 231.902 27.44C230.782 27.44 229.822 28.4 229.822 29.56V45.12C229.822 46.28 230.782 47.24 231.942 47.24C233.062 47.24 234.022 46.28 234.022 45.12V33.52C234.982 32.2 236.822 30.92 238.982 30.92C241.342 30.92 242.862 31.92 242.862 34.92V45.12C242.862 46.28 243.822 47.24 244.942 47.24C246.102 47.24 247.062 46.28 247.062 45.12V33.4C247.062 29.44 244.982 27.2 240.822 27.2ZM260.437 43.64C260.117 43.64 259.877 43.76 259.397 43.76C258.197 43.76 257.557 42.8 257.557 41.48V31.36H259.877C260.877 31.36 261.717 30.52 261.717 29.52C261.717 28.52 260.877 27.68 259.877 27.68H257.557V24.28C257.557 23.12 256.597 22.16 255.477 22.16C254.317 22.16 253.357 23.12 253.357 24.28V27.68H251.757C250.757 27.68 249.917 28.52 249.917 29.52C249.917 30.52 250.757 31.36 251.757 31.36H253.357V42.52C253.357 45.72 255.077 47.48 258.317 47.48C259.477 47.48 260.397 47.28 261.077 47C261.757 46.76 262.197 46.2 262.197 45.4C262.197 44.4 261.517 43.64 260.437 43.64ZM274.01 47.48C280.21 47.48 283.97 42.88 283.97 37.32C283.97 31.8 280.21 27.2 274.01 27.2C267.89 27.2 264.09 31.8 264.09 37.32C264.09 42.88 267.89 47.48 274.01 47.48ZM274.01 43.76C270.45 43.76 268.45 40.76 268.45 37.32C268.45 33.92 270.45 30.92 274.01 30.92C277.61 30.92 279.61 33.92 279.61 37.32C279.61 40.76 277.61 43.76 274.01 43.76ZM297.26 27.36C296.9 27.36 296.62 27.44 296.14 27.6C294.9 28 293.46 29.16 292.42 30.52V29.56C292.42 28.4 291.46 27.44 290.3 27.44C289.18 27.44 288.22 28.4 288.22 29.56V45.12C288.22 46.28 289.18 47.24 290.34 47.24C291.46 47.24 292.42 46.28 292.42 45.12V33.84C293.26 32.48 295.38 31.52 296.82 31.32C298.26 31.12 298.98 30.28 298.98 29.32C298.98 28.28 298.46 27.36 297.26 27.36Z" fill="#222222"/>
<defs>
<linearGradient id="paint0_linear" x1="52.4056" y1="0" x2="52.4056" y2="71" gradientUnits="userSpaceOnUse">
<stop stop-color="#EF5A39"/>
<stop offset="1" stop-color="#64235B"/>
</linearGradient>
</defs>
</svg>
